<?xml version="1.0" standalone="no"?>
<!DOCTYPE svg PUBLIC "-//W3C//DTD SVG 1.1//EN" "http://www.w3.org/Graphics/SVG/1.1/DTD/svg11.dtd" >
<svg xmlns="http://www.w3.org/2000/svg" xmlns:xlink="http://www.w3.org/1999/xlink" version="1.1">
<metadata>
Created by FontForge 20170731 at Tue May 29 00:51:22 2018
 By Aleksey,,,
Copyright (c) 2018 by Vladimir Nikolic. All rights reserved.
</metadata>
<defs>
<font id="SoccerLeagueCollege-Italic" horiz-adv-x="502" >
  <font-face 
    font-family="Soccer League College"
    font-weight="400"
    font-style="italic"
    font-stretch="normal"
    units-per-em="1000"
    panose-1="0 0 0 0 0 0 0 0 0 0"
    ascent="750"
    descent="-250"
    x-height="690"
    cap-height="692"
    bbox="12 -72 721 696"
    underline-thickness="50"
    underline-position="-150"
    unicode-range="U+000D-007A"
  />
<missing-glyph horiz-adv-x="237" 
 />
    <glyph glyph-name=".notdef" horiz-adv-x="237" 
 />
    <glyph glyph-name=".null" horiz-adv-x="0" 
 />
    <glyph glyph-name="nonmarkingreturn" unicode="&#xd;" horiz-adv-x="237" 
 />
    <glyph glyph-name="NULL" horiz-adv-x="0" 
 />
    <glyph glyph-name="NULL" horiz-adv-x="0" 
 />
    <glyph glyph-name="space" unicode=" " horiz-adv-x="237" 
 />
    <glyph glyph-name="exclam" unicode="!" horiz-adv-x="187" 
d="M254 691l-84 -691h-154l84 691h154zM114 669l-59 -476h121l59 476h-121zM55 190l-21 -168h121l21 168h-121zM163 175l-17 -138h-99l17 138h99zM222 654l-55 -446h-99l55 446h99z" />
    <glyph glyph-name="quotesingle" unicode="'" horiz-adv-x="179" 
d="M237 579l-20 -157l-72 -92h-65l9 72h-28l22 177h154zM96 560l-17 -140h28l-9 -72h42l62 80l16 132h-122zM206 547l-14 -114l-56 -72h-25l9 72h-28l14 114h100z" />
    <glyph glyph-name="comma" unicode="," horiz-adv-x="183" 
d="M188 177l-19 -156l-72 -93h-65l9 72h-28l21 177h154zM48 159l-17 -140h28l-9 -72h41l63 80l16 132h-122zM157 146l-14 -115l-55 -71h-25l8 71h-28l14 115h100z" />
    <glyph glyph-name="period" unicode="." horiz-adv-x="179" 
d="M183 154l-18 -154h-153l18 154h153zM44 138l-15 -122h121l15 122h-121zM153 127l-12 -100h-99l12 100h99z" />
    <glyph glyph-name="zero" unicode="0" horiz-adv-x="488" 
d="M296 211l33 269h-51l-33 -269h51zM482 90l-96 -90h-281l-74 90l62 511l96 90h281l74 -90zM522 591l-63 78h-263l-83 -78l-60 -491l63 -78h263l83 78zM222 189l38 313h93l-38 -313h-93zM449 106l-74 -69h-251l-55 69l58 479l73 69h251l56 -69zM327 174l42 343h-121
l-42 -343h121z" />
    <glyph glyph-name="one" unicode="1" horiz-adv-x="341" 
d="M351 212l-26 -212h-308l26 212h61l32 268h-61l26 212h248l-58 -480h60zM268 190l59 480h-208l-21 -168h60l-38 -312h-60l-21 -168h269l21 168h-61zM313 175l-17 -138h-242l17 138h61l42 342h-61l17 138h182l-59 -480h60z" />
    <glyph glyph-name="two" unicode="2" horiz-adv-x="490" 
d="M274 452h56l3 28h-56zM301 212l3 28h-56l-3 -28h56zM475 0h-457l44 362l52 49h-46l23 191l96 89h286l75 -89l-33 -272l-54 -50h48zM485 258h-158l-8 -68h-98l9 72h182l83 78l31 252l-64 77h-268l-83 -77l-19 -159h159l8 69h98l-9 -72h-184l-82 -78l-41 -330h415zM443 37
h-386l38 309l73 69h192l13 102h-127l-8 -69h-130l16 138l74 68h256l56 -68l-29 -240l-73 -69h-191l-13 -102h127l8 68h129z" />
    <glyph glyph-name="three" unicode="3" horiz-adv-x="480" 
d="M246 240l-3 -28h48l3 28h-48zM272 452h48l3 28h-48zM465 692l73 -90l-29 -238l-19 -18l15 -18l-29 -238l-95 -90h-279l-74 90l23 191h118l16 130h-118l23 191l96 90h279zM193 670l-83 -78l-19 -159h158l8 69h90l-9 -72h-130l-20 -168h130l-9 -72h-90l8 69h-158l-19 -159
l63 -78h260l83 78l27 218l-23 28l29 28l27 218l-63 78h-260zM445 655l55 -69l-25 -206l-36 -34l28 -34l-25 -206l-73 -69h-248l-56 69l16 137h130l-8 -68h119l13 102h-131l16 138h131l13 102h-119l-8 -68h-130l16 137l74 69h248z" />
    <glyph glyph-name="four" unicode="4" horiz-adv-x="459" 
d="M446 0h-264l20 171h-164l25 201l244 319h190l-37 -308h33zM415 190v3h33l21 168h-33l38 308h-157l-235 -304l-21 -172h198v-3h-33l-21 -168h222l21 168h-33zM266 361l17 23l-3 -23h-14zM431 175l-17 -138h-193l17 138h33l4 34h-197l19 150l225 295h136l-38 -308h32
l-17 -137h-32l-4 -34h32zM292 346l11 91l-64 -91h53z" />
    <glyph glyph-name="five" unicode="5" horiz-adv-x="487" 
d="M249 240l-3 -28h52l3 28h-52zM275 452h52l3 28h-52zM482 90l-95 -90h-282l-75 90l73 602h452l-34 -281h-46l40 -49zM493 352l-63 78h-179l9 72h94l-8 -69h157l29 237h-410l-50 -408h253l-9 -72h-94l8 69h-159l-19 -159l64 -78h264l82 78zM449 106l-73 -69h-252l-56 69
l16 137h130l-8 -68h122l13 102h-252l46 378h381l-25 -206h-129l8 68h-122l-13 -102h187l56 -69z" />
    <glyph glyph-name="six" unicode="6" horiz-adv-x="497" 
d="M249 240l-3 -28h55l3 28h-55zM275 452h55l3 28h-55zM487 90l-97 -90h-286l-74 90l62 512l96 90h286l75 -90l-23 -191h-47l41 -49zM497 352l-64 78h-182l9 72h97l-8 -69h158l19 159l-63 78h-268l-83 -78l-60 -492l63 -78h268l83 78zM328 262l-9 -72h-97l9 72h97zM218 277
l-13 -102h126l13 102h-126zM453 106l-74 -69h-256l-56 69l58 480l74 69h256l56 -69l-16 -137h-130l8 68h-126l-13 -102h191l57 -69z" />
    <glyph glyph-name="seven" unicode="7" horiz-adv-x="464" 
d="M271 463l7 17h-5zM529 691l-21 -174q0 -5 -6 -19t-15.5 -34.5t-21 -46t-23.5 -52.5q-29 -63 -46.5 -102.5t-20.5 -50.5h17l-26 -212h-272l26 212h44q23 56 42.5 101.5t42.5 97.5h-182l34 280h428zM120 669l-29 -236h156l8 69h54q-35 -83 -66.5 -156.5t-65.5 -155.5h-39
l-21 -168h230l21 168h-25q2 5 9.5 22t18 41.5t24 55t28.5 63.5q12 28 23.5 54t20.5 45.5t14.5 32t5.5 13.5l19 152h-386zM490 654l-17 -137q0 -1 -10.5 -25t-27 -59.5t-35 -78.5t-36 -80.5t-29 -65t-14.5 -33.5h31l-17 -138h-201l17 138h34l145 342h-87l-8 -69h-128l25 206
h358z" />
    <glyph glyph-name="eight" unicode="8" horiz-adv-x="484" 
d="M288 212l3 28h-45l-3 -28h45zM317 452l3 28h-45l-3 -28h45zM472 90l-96 -90h-274l-74 90l29 236l19 19l-15 19l29 238l96 89h274l74 -89l-29 -238l-20 -19l15 -20zM478 317l-22 29l29 28l27 218l-63 77h-256l-83 -77l-27 -218l23 -29l-30 -28l-26 -217l63 -78h256l83 78z
M248 430l9 72h87l-9 -72h-87zM219 190l9 72h87l-9 -72h-87zM438 106l-73 -69h-244l-56 69l25 205l36 35l-28 34l25 206l74 68h244l55 -68l-25 -206l-35 -34l27 -35zM318 175l13 102h-115l-13 -102h115zM347 415l13 102h-115l-13 -102h115z" />
    <glyph glyph-name="nine" unicode="9" horiz-adv-x="494" 
d="M249 240l-3 -28h55l3 28h-55zM330 452l3 28h-55l-3 -28h55zM92 602l96 90h286l75 -90l-62 -512l-97 -90h-286l-74 90l23 191h46l-40 49zM81 340l64 -78h183l-9 -72h-97l8 69h-159l-19 -159l63 -78h268l83 78l60 492l-63 78h-268l-83 -78zM251 430l9 72h97l-9 -72h-97z
M360 415l13 102h-126l-13 -102h126zM125 586l74 69h256l56 -69l-58 -480l-74 -69h-256l-56 69l16 137h130l-8 -68h126l13 102h-191l-57 69z" />
    <glyph glyph-name="question" unicode="?" horiz-adv-x="484" 
d="M268 447l6 5h50l3 28h-55zM510 330l-97 -90h-50l-29 -240h-201l44 362l53 49h-166l23 191l96 90h285l75 -90zM520 592l-63 78h-267l-83 -78l-19 -159h158l8 69h97l-9 -72h-62l-82 -78l-20 -158h157l9 68h63l82 78zM178 190l-21 -168h157l21 168h-157zM476 346l-73 -69
h-71l-9 -68h-129l17 137l73 69h71l13 102h-127l-8 -68h-129l16 137l74 69h255l56 -69zM319 175l-17 -138h-129l17 138h129z" />
    <glyph glyph-name="A" unicode="A" horiz-adv-x="563" 
d="M576 211l-25 -211h-537l25 211h40l88 269h-29l26 211h405l-26 -211h-29l22 -269h40zM517 189q-7 81 -13.5 156.5t-13.5 156.5h34l21 167h-362l-21 -167h35l-103 -313h-35l-21 -167h228l21 167h-29v4h95q0 -1 0.5 -1.5t0.5 -2.5h-30l-21 -167h228l21 167h-35zM333 421
l5 -60h-24zM294 346h61l-13 148zM536 174l-17 -137h-199l17 137h33l-3 35h-119l-11 -35h33l-17 -137h-199l17 137h33l113 343h-38l17 137h332l-17 -137h-37l29 -343h33z" />
    <glyph glyph-name="B" unicode="B" horiz-adv-x="511" 
d="M317 212l3 28h-38l-3 -28h38zM346 451l3 29h-38l-3 -29h38zM504 90l-97 -90h-388l26 212h32l32 268h-32l26 211h388l75 -90l-29 -236l-20 -19l16 -19zM509 317l-23 28l30 29l27 217l-63 78h-358l-21 -167h32l-38 -312h-32l-21 -168h358l83 78zM284 429l9 73h80l-9 -73
h-80zM255 190l9 72h80l-9 -72h-80zM470 106l-74 -69h-338l17 138h33l42 342h-33l17 137h338l56 -69l-25 -205l-37 -34l29 -35zM347 175l13 102h-109l-13 -102h109zM376 414l13 103h-109l-13 -103h109z" />
    <glyph glyph-name="C" unicode="C" horiz-adv-x="508" 
d="M501 90l-96 -90h-299l-75 90l62 511l97 90h299l74 -90l-23 -190h-202l8 69h-66l-33 -269h66l9 69h202zM500 258h-159l-8 -69h-109l38 313h109l-8 -69h159l19 158l-64 78h-280l-83 -78l-60 -491l63 -78h280l84 78zM468 106l-75 -69h-268l-56 69l58 479l74 69h268l57 -69
l-16 -137h-131l8 69h-137l-42 -343h137l8 69h131z" />
    <glyph glyph-name="D" unicode="D" horiz-adv-x="523" 
d="M329 211l33 269h-47l-33 -269h47zM518 90l-97 -90h-400l25 211h33l33 269h-33l26 211h400l75 -90zM558 591l-64 78h-369l-21 -167h32l-38 -313h-32l-21 -167h369l84 78zM258 189l38 313h91l-38 -313h-91zM485 106l-75 -69h-349l17 137h33l42 343h-33l17 137h349l57 -69z
M361 174l42 343h-119l-42 -343h119z" />
    <glyph glyph-name="E" unicode="E" horiz-adv-x="506" 
d="M311 212l3 28h-31l-3 -28h31zM309 452h31l3 28h-31zM486 0h-466l26 212h33l32 268h-33l26 212h466l-34 -281h-106l-16 -130h106zM496 259h-159l-8 -69h-73l9 72h126l20 168h-126l9 72h73l-8 -69h159l29 237h-423l-21 -168h33l-38 -312h-33l-21 -168h423zM455 37h-395
l17 138h33l42 342h-33l17 138h395l-25 -206h-131l8 68h-101l-13 -102h126l-16 -138h-126l-13 -102h101l8 68h131z" />
    <glyph glyph-name="F" unicode="F" horiz-adv-x="483" 
d="M308 452h14l3 28h-14zM516 411h-85l-21 -171h-128l-3 -28h32l-26 -212h-266l26 212h33l32 268h-33l26 212h447zM527 670h-405l-21 -168h33l-38 -312h-33l-21 -168h223l21 168h-32l9 72h129l20 168h-129l9 72h57l-8 -69h157zM486 449h-129l8 68h-85l-13 -102h129l-16 -138
h-129l-13 -102h32l-17 -138h-194l17 138h33l42 342h-33l17 138h376z" />
    <glyph glyph-name="G" unicode="G" 
d="M272 417h62l7 63h-62zM495 90l-96 -90h-294l-75 90l62 512l97 90h294l74 -90zM511 395h-256l-21 -167h97l-4 -38h-104l38 312h104l-8 -69h159l19 159l-63 78h-276l-83 -78l-60 -492l63 -78h276l83 78zM462 106l-74 -69h-264l-56 69l58 480l74 69h264l56 -69l-16 -137
h-131l8 68h-133l-42 -342h133l8 68h-97l17 137h228z" />
    <glyph glyph-name="H" unicode="H" horiz-adv-x="572" 
d="M319 480l-3 -28h51l3 28h-51zM287 212h51l3 28h-51zM575 480l-32 -268h33l-26 -212h-527l26 212h33l32 268h-33l26 212h527l-26 -212h-33zM518 190l38 312h34l21 168h-229l-21 -168h34l-9 -72h-94l9 72h33l21 168h-228l-21 -168h33l-38 -312h-33l-21 -168h228l21 168h-33
l9 72h94l-9 -72h-34l-21 -168h229l21 168h-34zM535 175l-17 -138h-199l17 138h33l13 102h-123l-13 -102h33l-17 -138h-198l17 138h32l42 342h-32l17 138h198l-17 -138h-33l-13 -102h123l13 102h-33l17 138h199l-17 -138h-34l-42 -342h34z" />
    <glyph glyph-name="I" unicode="I" horiz-adv-x="274" 
d="M281 480l-32 -268h28l-26 -212h-230l26 212h27l32 268h-27l26 212h230l-26 -212h-28zM227 190l38 312h28l21 168h-193l-21 -168h28l-38 -312h-28l-21 -168h193l21 168h-28zM241 175l-17 -138h-169l17 138h28l42 342h-28l17 138h169l-17 -138h-28l-42 -342h28z" />
    <glyph glyph-name="J" unicode="J" horiz-adv-x="467" 
d="M535 692l-26 -212h-33l-47 -390l-95 -90h-229l-74 90l23 191h198l-8 -69h2l32 268h-33l26 212h264zM290 670l-21 -168h33l-38 -312h-43l8 69h-157l-19 -159l63 -78h211l83 78l49 402h32l21 168h-222zM496 655l-17 -138h-33l-50 -411l-73 -69h-199l-56 69l16 137h128
l-8 -68h72l42 342h-32l17 138h193z" />
    <glyph glyph-name="K" unicode="K" horiz-adv-x="552" 
d="M538 480q-17 -19 -32 -34.5t-29.5 -31t-30 -32t-33.5 -36.5l93 -134h49l-26 -212h-507l26 212h34l32 268h-34l26 212h507l-26 -212h-49zM569 502l21 168h-227l-21 -168h11l-45 -47q-6 -9 -17 -18l8 65h33l21 168h-227l-21 -168h33l-38 -312h-33l-21 -168h227l21 168h-33
l8 69l13 -22q8 -12 16.5 -24t16.5 -23h-11l-21 -168h227l21 168h-38q-25 38 -53.5 78.5t-53.5 77.5q38 42 72.5 78.5t72.5 77.5h38zM526 517l-159 -171l117 -171h30l-17 -138h-198l17 138h28q-18 26 -35.5 51t-35.5 51h-16l-13 -102h34l-17 -138h-199l17 138h34l42 342h-34
l17 138h199l-17 -138h-34l-13 -102h16q26 26 49.5 51t47.5 51h-28l17 138h198l-17 -138h-30z" />
    <glyph glyph-name="L" unicode="L" horiz-adv-x="478" 
d="M492 280l-34 -280h-436l25 211h32l33 269h-32l26 211h263l-26 -211h-32l-33 -269h5l9 69h200zM310 258l-8 -69h-47l38 313h32l21 167h-221l-21 -167h32l-38 -313h-32l-21 -167h394l29 236h-158zM452 243l-25 -206h-366l17 137h32l42 343h-32l17 137h193l-17 -137h-32
l-42 -343h75l8 69h130z" />
    <glyph glyph-name="M" unicode="M" horiz-adv-x="642" 
d="M290 212h3l-3 6v-6zM401 212h5l1 9zM647 480l-32 -268h33l-26 -212h-276l19 155l-32 -50l-18 47l-18 -152h-275l26 212h33l32 268h-33l26 212h217l64 -150l102 150h217l-26 -212h-33zM590 190l38 312h33l21 168h-182l-119 -174l-73 174h-182l-21 -168h33l-38 -312h-33
l-21 -168h231l21 168h-33l15 121l59 -158l101 159l-15 -122h-34l-21 -168h232l21 168h-33zM606 175l-17 -138h-202l17 138h34l25 200l-120 -189l-70 189l-25 -200h34l-17 -138h-202l17 138h33l42 342h-33l17 138h159l80 -190l129 190h158l-17 -138h-33l-42 -342h33z" />
    <glyph glyph-name="N" unicode="N" horiz-adv-x="559" 
d="M626 692l-26 -212h-34l-58 -480h-195l-15 53l-6 -53h-271l26 212h33l32 268h-33l26 212h223l18 -67l8 67h272zM374 670l-20 -157l-43 157h-187l-21 -168h34l-38 -312h-34l-21 -168h228l18 146l39 -146h160l59 480h33l21 168h-228zM387 502l-9 -73l-21 73h30zM268 253
l17 -63h-25zM585 655l-17 -138h-33l-59 -480h-134l-80 295l-19 -157h34l-17 -138h-199l17 138h33l42 342h-33l17 138h163l83 -304l20 166h-33l17 138h198z" />
    <glyph glyph-name="O" unicode="O" horiz-adv-x="488" 
d="M296 211l33 269h-51l-33 -269h51zM482 90l-96 -90h-281l-74 90l62 511l96 90h281l74 -90zM522 591l-63 78h-263l-83 -78l-60 -491l63 -78h263l83 78zM222 189l38 313h93l-38 -313h-93zM449 106l-74 -69h-251l-55 69l58 479l73 69h251l56 -69zM327 174l42 343h-121
l-42 -343h121z" />
    <glyph glyph-name="P" unicode="P" 
d="M334 452l3 28h-27l-3 -28h27zM554 602l-33 -272l-97 -90h-143l-3 -28h32l-26 -212h-265l26 212h32l32 268h-32l26 211h376zM468 669h-346l-21 -167h32l-38 -312h-32l-21 -168h223l21 168h-32l9 72h155l82 78l31 252zM283 430l9 72h69l-9 -72h-69zM516 586l-29 -240
l-73 -69h-163l-13 -102h32l-17 -138h-195l17 138h32l42 342h-32l17 137h326zM365 415l13 102h-98l-13 -102h98z" />
    <glyph glyph-name="Q" unicode="Q" horiz-adv-x="492" 
d="M250 248h49l29 234h-49zM480 91l-74 -69l-7 -56h-203l5 34h-97l-73 91l63 514l95 91h280l74 -91zM521 595l-64 79h-261l-82 -79l-61 -495l63 -78h108l-4 -34h161l5 43l74 69zM249 225l-4 -34h-23l39 314h91l-35 -280h-68zM447 107l-74 -69l-4 -34h-132l4 34h-117l-55 69
l59 482l72 69h249l57 -69zM329 210l38 310h-120l-42 -344h53l4 34h67z" />
    <glyph glyph-name="R" unicode="R" horiz-adv-x="504" 
d="M340 451l3 29h-31l-3 -29h31zM279 211h31l4 29h-31zM513 211h24l-25 -211h-494l25 211h33l33 269h-33l26 211h384l75 -90l-29 -237l-20 -19l15 -20zM490 189l15 128l-23 29l30 28l27 217l-65 78h-353l-21 -167h34l-38 -313h-34l-21 -167h227l21 167h-34l9 73h74l-9 -73
h-27l-21 -167h212l21 167h-24zM284 429l9 73h74l-9 -73h-74zM497 174l-17 -137h-182l17 137h27l13 103h-103l-13 -103h33l-17 -137h-197l17 137h33l42 343h-33l17 137h332l57 -69l-25 -205l-36 -34l28 -35l-17 -137h24zM371 414l13 103h-103l-13 -103h103z" />
    <glyph glyph-name="S" unicode="S" horiz-adv-x="489" 
d="M248 240l-3 -28h51l3 28h-51zM274 452h51l3 28h-51zM482 90l-97 -90h-281l-74 90l23 191h46l-40 49l33 272l96 90h281l75 -90l-23 -191h-47l41 -49zM492 352l-64 78h-178l9 72h93l-8 -69h158l19 159l-63 78h-263l-83 -78l-31 -252l64 -78h178l-9 -72h-93l8 69h-158
l-19 -159l63 -78h263l83 78zM448 106l-74 -69h-251l-56 69l16 137h130l-8 -68h121l13 102h-186l-57 69l29 240l74 69h251l56 -69l-16 -137h-130l8 68h-121l-13 -102h186l57 -69z" />
    <glyph glyph-name="T" unicode="T" horiz-adv-x="489" 
d="M560 692l-34 -281h-131l-24 -199h33l-26 -212h-266l26 212h33l24 199h-131l34 281h462zM117 670l-29 -237h127l8 69h4l-38 -312h-33l-21 -168h224l21 168h-33l38 312h4l-8 -69h126l29 237h-419zM520 655l-25 -206h-97l8 68h-33l-42 -342h33l-17 -138h-196l17 138h33
l42 342h-33l-8 -68h-98l25 206h391z" />
    <glyph glyph-name="U" unicode="U" horiz-adv-x="559" 
d="M317 480l-32 -268h41l32 268h-41zM621 692l-26 -212h-32l-47 -390l-98 -90h-277l-76 90l47 390h-33l26 212h516zM371 670l-21 -168h33l-38 -312h-85l38 312h33l21 168h-227l-21 -168h33l-49 -402l64 -78h258l85 78l49 402h33l21 168h-227zM581 655l-17 -138h-32l-50 -411
l-76 -69h-245l-58 69l50 411h-32l17 138h197l-17 -138h-32l-42 -342h113l42 342h-32l17 138h197z" />
    <glyph glyph-name="V" unicode="V" horiz-adv-x="570" 
d="M323 480l9 -105l34 105h-43zM101 691h537l-26 -211h-39l-158 -480h-258l-42 480h-40zM299 502h29l21 167h-228l-21 -167h35l41 -480h224l158 480h36l21 167h-229l-21 -167h30l-76 -229zM310 197l105 320h-33l17 137h199l-17 -137h-33l-158 -480h-200l-41 480h-32l17 137
h199l-17 -137h-33z" />
    <glyph glyph-name="W" unicode="W" horiz-adv-x="654" 
d="M432 479l17 -31l3 31h-20zM319 479l-5 -41l32 41h-27zM721 690l-26 -211h-35l-59 -480h-193l-63 131q-26 -32 -53 -67t-50 -64h-191l59 480h-34l26 211h277l-24 -201l46 58l20 -42l22 185h278zM463 668l-21 -167h35l-16 -131l-66 136l-112 -142l17 137h34l21 167h-233
l-21 -167h34l-59 -480h158l118 151l72 -151h158l59 480h35l21 167h-234zM680 653l-17 -137h-35l-59 -479h-134l-79 163l-128 -163h-135l59 479h-34l17 137h203l-17 -137h-34l-25 -201l128 163l79 -163l25 201h-35l17 137h204z" />
    <glyph glyph-name="X" unicode="X" horiz-adv-x="532" 
d="M123 480h-48l26 212h496l-26 -212h-43l-99 -137q17 -35 32 -64.5t33 -66.5h45l-26 -212h-496l26 212h45q13 18 25 33.5t24 30.5t24.5 31t26.5 35zM216 343q-32 -40 -61 -76.5t-59 -76.5h-35l-21 -168h224l21 168h-13l19 26q4 -11 7 -16t5 -10h-12l-21 -168h224l21 168
h-36l-38.5 77t-38.5 76q29 42 58.5 80t58.5 79h34l21 168h-223l-21 -168h15q-8 -11 -12 -18.5t-9 -14.5l-16 33h14l21 168h-223l-21 -168h40zM149 517h-33l17 138h193l-17 -138h-24l36 -80l50 80h-25l17 138h194l-17 -138h-26l-128 -174l83 -168h29l-17 -138h-195l17 138h24
l-31 70l-51 -70h23l-17 -138h-194l17 138h28l130 167z" />
    <glyph glyph-name="Y" unicode="Y" horiz-adv-x="532" 
d="M600 691l-26 -212h-46q-32 -57 -64.5 -110.5t-65.5 -110.5l-6 -47h32l-25 -211h-269l25 211h34q2 11 3 22t3 24q-1 1 -2 3l-4 12q-8 22 -19 55.5t-21.5 65.5t-18.5 56.5t-10 29.5h-47l26 212h501zM350 669l-21 -168h26l-38 -70q-3 13 -5.5 21.5t-4.5 16t-3.5 15
t-4.5 17.5h25l21 168h-226l-21 -168h38q2 -5 11 -31.5t20 -60.5t23 -69.5t20 -57.5q2 -5 3 -9t2 -6q1 -3 2 -5q-6 -37 -10 -73h-32l-21 -167h226l21 167h-33l9 75l140 237h39l21 168h-227zM560 654l-17 -138h-33l-147 -250l-11 -92h32l-17 -137h-197l17 137h33l11 92
l-6.5 17.5t-15 44t-18.5 57.5t-20 59t-16.5 48t-7.5 24h-33l17 138h197l-17 -138h-32l34 -125l66 125h-33l17 138h197z" />
    <glyph glyph-name="Z" unicode="Z" horiz-adv-x="500" 
d="M309 212v4l-3 -4h3zM278 467l10 13h-9zM230 411h-161l34 281h465l-22 -187l-184 -224h156l-34 -281h-465l22 187zM63 180l-20 -158h422l29 237h-159l-8 -69h-65l263 322l20 158h-422l-29 -237h159l8 69h72zM364 517h-116l-8 -68h-130l25 206h394l-17 -138l-281 -342h108
l8 68h131l-25 -206h-394l17 138z" />
    <glyph glyph-name="a" unicode="a" horiz-adv-x="563" 
d="M576 211l-25 -211h-537l25 211h40l88 269h-29l26 211h405l-26 -211h-29l22 -269h40zM517 189q-7 81 -13.5 156.5t-13.5 156.5h34l21 167h-362l-21 -167h35l-103 -313h-35l-21 -167h228l21 167h-29v4h95q0 -1 0.5 -1.5t0.5 -2.5h-30l-21 -167h228l21 167h-35zM333 421
l5 -60h-24zM294 346h61l-13 148zM536 174l-17 -137h-199l17 137h33l-3 35h-119l-11 -35h33l-17 -137h-199l17 137h33l113 343h-38l17 137h332l-17 -137h-37l29 -343h33z" />
    <glyph glyph-name="b" unicode="b" horiz-adv-x="511" 
d="M317 212l3 28h-38l-3 -28h38zM346 451l3 29h-38l-3 -29h38zM504 90l-97 -90h-388l26 212h32l32 268h-32l26 211h388l75 -90l-29 -236l-20 -19l16 -19zM509 317l-23 28l30 29l27 217l-63 78h-358l-21 -167h32l-38 -312h-32l-21 -168h358l83 78zM284 429l9 73h80l-9 -73
h-80zM255 190l9 72h80l-9 -72h-80zM470 106l-74 -69h-338l17 138h33l42 342h-33l17 137h338l56 -69l-25 -205l-37 -34l29 -35zM347 175l13 102h-109l-13 -102h109zM376 414l13 103h-109l-13 -103h109z" />
    <glyph glyph-name="c" unicode="c" horiz-adv-x="508" 
d="M501 90l-96 -90h-299l-75 90l62 511l97 90h299l74 -90l-23 -190h-202l8 69h-66l-33 -269h66l9 69h202zM500 258h-159l-8 -69h-109l38 313h109l-8 -69h159l19 158l-64 78h-280l-83 -78l-60 -491l63 -78h280l84 78zM468 106l-75 -69h-268l-56 69l58 479l74 69h268l57 -69
l-16 -137h-131l8 69h-137l-42 -343h137l8 69h131z" />
    <glyph glyph-name="d" unicode="d" horiz-adv-x="523" 
d="M329 211l33 269h-47l-33 -269h47zM518 90l-97 -90h-400l25 211h33l33 269h-33l26 211h400l75 -90zM558 591l-64 78h-369l-21 -167h32l-38 -313h-32l-21 -167h369l84 78zM258 189l38 313h91l-38 -313h-91zM485 106l-75 -69h-349l17 137h33l42 343h-33l17 137h349l57 -69z
M361 174l42 343h-119l-42 -343h119z" />
    <glyph glyph-name="e" unicode="e" horiz-adv-x="506" 
d="M311 212l3 28h-31l-3 -28h31zM309 452h31l3 28h-31zM486 0h-466l26 212h33l32 268h-33l26 212h466l-34 -281h-106l-16 -130h106zM496 259h-159l-8 -69h-73l9 72h126l20 168h-126l9 72h73l-8 -69h159l29 237h-423l-21 -168h33l-38 -312h-33l-21 -168h423zM455 37h-395
l17 138h33l42 342h-33l17 138h395l-25 -206h-131l8 68h-101l-13 -102h126l-16 -138h-126l-13 -102h101l8 68h131z" />
    <glyph glyph-name="f" unicode="f" horiz-adv-x="483" 
d="M308 452h14l3 28h-14zM516 411h-85l-21 -171h-128l-3 -28h32l-26 -212h-266l26 212h33l32 268h-33l26 212h447zM527 670h-405l-21 -168h33l-38 -312h-33l-21 -168h223l21 168h-32l9 72h129l20 168h-129l9 72h57l-8 -69h157zM486 449h-129l8 68h-85l-13 -102h129l-16 -138
h-129l-13 -102h32l-17 -138h-194l17 138h33l42 342h-33l17 138h376z" />
    <glyph glyph-name="g" unicode="g" 
d="M272 417h62l7 63h-62zM495 90l-96 -90h-294l-75 90l62 512l97 90h294l74 -90zM511 395h-256l-21 -167h97l-4 -38h-104l38 312h104l-8 -69h159l19 159l-63 78h-276l-83 -78l-60 -492l63 -78h276l83 78zM462 106l-74 -69h-264l-56 69l58 480l74 69h264l56 -69l-16 -137
h-131l8 68h-133l-42 -342h133l8 68h-97l17 137h228z" />
    <glyph glyph-name="h" unicode="h" horiz-adv-x="572" 
d="M319 480l-3 -28h51l3 28h-51zM287 212h51l3 28h-51zM575 480l-32 -268h33l-26 -212h-527l26 212h33l32 268h-33l26 212h527l-26 -212h-33zM518 190l38 312h34l21 168h-229l-21 -168h34l-9 -72h-94l9 72h33l21 168h-228l-21 -168h33l-38 -312h-33l-21 -168h228l21 168h-33
l9 72h94l-9 -72h-34l-21 -168h229l21 168h-34zM535 175l-17 -138h-199l17 138h33l13 102h-123l-13 -102h33l-17 -138h-198l17 138h32l42 342h-32l17 138h198l-17 -138h-33l-13 -102h123l13 102h-33l17 138h199l-17 -138h-34l-42 -342h34z" />
    <glyph glyph-name="i" unicode="i" horiz-adv-x="274" 
d="M281 480l-32 -268h28l-26 -212h-230l26 212h27l32 268h-27l26 212h230l-26 -212h-28zM227 190l38 312h28l21 168h-193l-21 -168h28l-38 -312h-28l-21 -168h193l21 168h-28zM241 175l-17 -138h-169l17 138h28l42 342h-28l17 138h169l-17 -138h-28l-42 -342h28z" />
    <glyph glyph-name="j" unicode="j" horiz-adv-x="467" 
d="M535 692l-26 -212h-33l-47 -390l-95 -90h-229l-74 90l23 191h198l-8 -69h2l32 268h-33l26 212h264zM290 670l-21 -168h33l-38 -312h-43l8 69h-157l-19 -159l63 -78h211l83 78l49 402h32l21 168h-222zM496 655l-17 -138h-33l-50 -411l-73 -69h-199l-56 69l16 137h128
l-8 -68h72l42 342h-32l17 138h193z" />
    <glyph glyph-name="k" unicode="k" horiz-adv-x="552" 
d="M538 480q-17 -19 -32 -34.5t-29.5 -31t-30 -32t-33.5 -36.5l93 -134h49l-26 -212h-507l26 212h34l32 268h-34l26 212h507l-26 -212h-49zM569 502l21 168h-227l-21 -168h11l-45 -47q-6 -9 -17 -18l8 65h33l21 168h-227l-21 -168h33l-38 -312h-33l-21 -168h227l21 168h-33
l8 69l13 -22q8 -12 16.5 -24t16.5 -23h-11l-21 -168h227l21 168h-38q-25 38 -53.5 78.5t-53.5 77.5q38 42 72.5 78.5t72.5 77.5h38zM526 517l-159 -171l117 -171h30l-17 -138h-198l17 138h28q-18 26 -35.5 51t-35.5 51h-16l-13 -102h34l-17 -138h-199l17 138h34l42 342h-34
l17 138h199l-17 -138h-34l-13 -102h16q26 26 49.5 51t47.5 51h-28l17 138h198l-17 -138h-30z" />
    <glyph glyph-name="l" unicode="l" horiz-adv-x="478" 
d="M492 280l-34 -280h-436l25 211h32l33 269h-32l26 211h263l-26 -211h-32l-33 -269h5l9 69h200zM310 258l-8 -69h-47l38 313h32l21 167h-221l-21 -167h32l-38 -313h-32l-21 -167h394l29 236h-158zM452 243l-25 -206h-366l17 137h32l42 343h-32l17 137h193l-17 -137h-32
l-42 -343h75l8 69h130z" />
    <glyph glyph-name="m" unicode="m" horiz-adv-x="642" 
d="M290 212h3l-3 6v-6zM401 212h5l1 9zM647 480l-32 -268h33l-26 -212h-276l19 155l-32 -50l-18 47l-18 -152h-275l26 212h33l32 268h-33l26 212h217l64 -150l102 150h217l-26 -212h-33zM590 190l38 312h33l21 168h-182l-119 -174l-73 174h-182l-21 -168h33l-38 -312h-33
l-21 -168h231l21 168h-33l15 121l59 -158l101 159l-15 -122h-34l-21 -168h232l21 168h-33zM606 175l-17 -138h-202l17 138h34l25 200l-120 -189l-70 189l-25 -200h34l-17 -138h-202l17 138h33l42 342h-33l17 138h159l80 -190l129 190h158l-17 -138h-33l-42 -342h33z" />
    <glyph glyph-name="n" unicode="n" horiz-adv-x="559" 
d="M626 692l-26 -212h-34l-58 -480h-195l-15 53l-6 -53h-271l26 212h33l32 268h-33l26 212h223l18 -67l8 67h272zM374 670l-20 -157l-43 157h-187l-21 -168h34l-38 -312h-34l-21 -168h228l18 146l39 -146h160l59 480h33l21 168h-228zM387 502l-9 -73l-21 73h30zM268 253
l17 -63h-25zM585 655l-17 -138h-33l-59 -480h-134l-80 295l-19 -157h34l-17 -138h-199l17 138h33l42 342h-33l17 138h163l83 -304l20 166h-33l17 138h198z" />
    <glyph glyph-name="o" unicode="o" horiz-adv-x="488" 
d="M296 211l33 269h-51l-33 -269h51zM482 90l-96 -90h-281l-74 90l62 511l96 90h281l74 -90zM522 591l-63 78h-263l-83 -78l-60 -491l63 -78h263l83 78zM222 189l38 313h93l-38 -313h-93zM449 106l-74 -69h-251l-55 69l58 479l73 69h251l56 -69zM327 174l42 343h-121
l-42 -343h121z" />
    <glyph glyph-name="p" unicode="p" 
d="M334 452l3 28h-27l-3 -28h27zM554 602l-33 -272l-97 -90h-143l-3 -28h32l-26 -212h-265l26 212h32l32 268h-32l26 211h376zM468 669h-346l-21 -167h32l-38 -312h-32l-21 -168h223l21 168h-32l9 72h155l82 78l31 252zM283 430l9 72h69l-9 -72h-69zM516 586l-29 -240
l-73 -69h-163l-13 -102h32l-17 -138h-195l17 138h32l42 342h-32l17 137h326zM365 415l13 102h-98l-13 -102h98z" />
    <glyph glyph-name="q" unicode="q" horiz-adv-x="492" 
d="M250 248h49l29 234h-49zM480 91l-74 -69l-7 -56h-203l5 34h-97l-73 91l63 514l95 91h280l74 -91zM521 595l-64 79h-261l-82 -79l-61 -495l63 -78h108l-4 -34h161l5 43l74 69zM249 225l-4 -34h-23l39 314h91l-35 -280h-68zM447 107l-74 -69l-4 -34h-132l4 34h-117l-55 69
l59 482l72 69h249l57 -69zM329 210l38 310h-120l-42 -344h53l4 34h67z" />
    <glyph glyph-name="r" unicode="r" horiz-adv-x="504" 
d="M340 451l3 29h-31l-3 -29h31zM279 211h31l4 29h-31zM513 211h24l-25 -211h-494l25 211h33l33 269h-33l26 211h384l75 -90l-29 -237l-20 -19l15 -20zM490 189l15 128l-23 29l30 28l27 217l-65 78h-353l-21 -167h34l-38 -313h-34l-21 -167h227l21 167h-34l9 73h74l-9 -73
h-27l-21 -167h212l21 167h-24zM284 429l9 73h74l-9 -73h-74zM497 174l-17 -137h-182l17 137h27l13 103h-103l-13 -103h33l-17 -137h-197l17 137h33l42 343h-33l17 137h332l57 -69l-25 -205l-36 -34l28 -35l-17 -137h24zM371 414l13 103h-103l-13 -103h103z" />
    <glyph glyph-name="s" unicode="s" horiz-adv-x="489" 
d="M248 240l-3 -28h51l3 28h-51zM274 452h51l3 28h-51zM482 90l-97 -90h-281l-74 90l23 191h46l-40 49l33 272l96 90h281l75 -90l-23 -191h-47l41 -49zM492 352l-64 78h-178l9 72h93l-8 -69h158l19 159l-63 78h-263l-83 -78l-31 -252l64 -78h178l-9 -72h-93l8 69h-158
l-19 -159l63 -78h263l83 78zM448 106l-74 -69h-251l-56 69l16 137h130l-8 -68h121l13 102h-186l-57 69l29 240l74 69h251l56 -69l-16 -137h-130l8 68h-121l-13 -102h186l57 -69z" />
    <glyph glyph-name="t" unicode="t" horiz-adv-x="489" 
d="M560 692l-34 -281h-131l-24 -199h33l-26 -212h-266l26 212h33l24 199h-131l34 281h462zM117 670l-29 -237h127l8 69h4l-38 -312h-33l-21 -168h224l21 168h-33l38 312h4l-8 -69h126l29 237h-419zM520 655l-25 -206h-97l8 68h-33l-42 -342h33l-17 -138h-196l17 138h33
l42 342h-33l-8 -68h-98l25 206h391z" />
    <glyph glyph-name="u" unicode="u" horiz-adv-x="559" 
d="M317 480l-32 -268h41l32 268h-41zM621 692l-26 -212h-32l-47 -390l-98 -90h-277l-76 90l47 390h-33l26 212h516zM371 670l-21 -168h33l-38 -312h-85l38 312h33l21 168h-227l-21 -168h33l-49 -402l64 -78h258l85 78l49 402h33l21 168h-227zM581 655l-17 -138h-32l-50 -411
l-76 -69h-245l-58 69l50 411h-32l17 138h197l-17 -138h-32l-42 -342h113l42 342h-32l17 138h197z" />
    <glyph glyph-name="v" unicode="v" horiz-adv-x="570" 
d="M323 480l9 -105l34 105h-43zM101 691h537l-26 -211h-39l-158 -480h-258l-42 480h-40zM299 502h29l21 167h-228l-21 -167h35l41 -480h224l158 480h36l21 167h-229l-21 -167h30l-76 -229zM310 197l105 320h-33l17 137h199l-17 -137h-33l-158 -480h-200l-41 480h-32l17 137
h199l-17 -137h-33z" />
    <glyph glyph-name="w" unicode="w" horiz-adv-x="654" 
d="M432 479l17 -31l3 31h-20zM319 479l-5 -41l32 41h-27zM721 690l-26 -211h-35l-59 -480h-193l-63 131q-26 -32 -53 -67t-50 -64h-191l59 480h-34l26 211h277l-24 -201l46 58l20 -42l22 185h278zM463 668l-21 -167h35l-16 -131l-66 136l-112 -142l17 137h34l21 167h-233
l-21 -167h34l-59 -480h158l118 151l72 -151h158l59 480h35l21 167h-234zM680 653l-17 -137h-35l-59 -479h-134l-79 163l-128 -163h-135l59 479h-34l17 137h203l-17 -137h-34l-25 -201l128 163l79 -163l25 201h-35l17 137h204z" />
    <glyph glyph-name="x" unicode="x" horiz-adv-x="532" 
d="M123 480h-48l26 212h496l-26 -212h-43l-99 -137q17 -35 32 -64.5t33 -66.5h45l-26 -212h-496l26 212h45q13 18 25 33.5t24 30.5t24.5 31t26.5 35zM216 343q-32 -40 -61 -76.5t-59 -76.5h-35l-21 -168h224l21 168h-13l19 26q4 -11 7 -16t5 -10h-12l-21 -168h224l21 168
h-36l-38.5 77t-38.5 76q29 42 58.5 80t58.5 79h34l21 168h-223l-21 -168h15q-8 -11 -12 -18.5t-9 -14.5l-16 33h14l21 168h-223l-21 -168h40zM149 517h-33l17 138h193l-17 -138h-24l36 -80l50 80h-25l17 138h194l-17 -138h-26l-128 -174l83 -168h29l-17 -138h-195l17 138h24
l-31 70l-51 -70h23l-17 -138h-194l17 138h28l130 167z" />
    <glyph glyph-name="y" unicode="y" horiz-adv-x="532" 
d="M600 691l-26 -212h-46q-32 -57 -64.5 -110.5t-65.5 -110.5l-6 -47h32l-25 -211h-269l25 211h34q2 11 3 22t3 24q-1 1 -2 3l-4 12q-8 22 -19 55.5t-21.5 65.5t-18.5 56.5t-10 29.5h-47l26 212h501zM350 669l-21 -168h26l-38 -70q-3 13 -5.5 21.5t-4.5 16t-3.5 15
t-4.5 17.5h25l21 168h-226l-21 -168h38q2 -5 11 -31.5t20 -60.5t23 -69.5t20 -57.5q2 -5 3 -9t2 -6q1 -3 2 -5q-6 -37 -10 -73h-32l-21 -167h226l21 167h-33l9 75l140 237h39l21 168h-227zM560 654l-17 -138h-33l-147 -250l-11 -92h32l-17 -137h-197l17 137h33l11 92
l-6.5 17.5t-15 44t-18.5 57.5t-20 59t-16.5 48t-7.5 24h-33l17 138h197l-17 -138h-32l34 -125l66 125h-33l17 138h197z" />
    <glyph glyph-name="z" unicode="z" horiz-adv-x="500" 
d="M309 212v4l-3 -4h3zM278 467l10 13h-9zM230 411h-161l34 281h465l-22 -187l-184 -224h156l-34 -281h-465l22 187zM63 180l-20 -158h422l29 237h-159l-8 -69h-65l263 322l20 158h-422l-29 -237h159l8 69h72zM364 517h-116l-8 -68h-130l25 206h394l-17 -138l-281 -342h108
l8 68h131l-25 -206h-394l17 138z" />
  </font>
</defs>
</svg>
