<?xml version="1.0" standalone="no"?>
<!DOCTYPE svg PUBLIC "-//W3C//DTD SVG 1.1//EN" "http://www.w3.org/Graphics/SVG/1.1/DTD/svg11.dtd" >
<svg xmlns="http://www.w3.org/2000/svg" xmlns:xlink="http://www.w3.org/1999/xlink" version="1.1">
<metadata>
Created by FontForge 20170731 at Tue May 29 00:49:29 2018
 By Aleksey,,,
Copyright (c) 2018 by Vladimir Nikolic. All rights reserved.
</metadata>
<defs>
<font id="SoccerLeagueCollege-Regular" horiz-adv-x="502" >
  <font-face 
    font-family="Soccer League College"
    font-weight="400"
    font-stretch="normal"
    units-per-em="1000"
    panose-1="0 0 0 0 0 0 0 0 0 0"
    ascent="750"
    descent="-250"
    x-height="690"
    cap-height="692"
    bbox="12 -72 637 696"
    underline-thickness="50"
    underline-position="-150"
    unicode-range="U+000D-007A"
  />
<missing-glyph horiz-adv-x="237" 
 />
    <glyph glyph-name=".notdef" horiz-adv-x="237" 
 />
    <glyph glyph-name=".null" horiz-adv-x="0" 
 />
    <glyph glyph-name="nonmarkingreturn" unicode="&#xd;" horiz-adv-x="237" 
 />
    <glyph glyph-name="NULL" horiz-adv-x="0" 
 />
    <glyph glyph-name="NULL" horiz-adv-x="0" 
 />
    <glyph glyph-name="space" unicode=" " horiz-adv-x="237" 
 />
    <glyph glyph-name="exclam" unicode="!" horiz-adv-x="187" 
d="M170 691v-691h-154v691h154zM32 669v-476h121v476h-121zM32 190v-168h121v168h-121zM142 175v-138h-99v138h99zM142 654v-446h-99v446h99z" />
    <glyph glyph-name="quotesingle" unicode="'" horiz-adv-x="179" 
d="M166 579v-157l-61 -92h-65v72h-28v177h154zM28 560v-140h28v-72h42l52 80v132h-122zM139 547v-114l-47 -72h-25v72h-28v114h100z" />
    <glyph glyph-name="comma" unicode="," horiz-adv-x="183" 
d="M167 177v-156l-61 -93h-65v72h-28v177h154zM29 159v-140h28v-72h41l53 80v132h-122zM140 146v-115l-47 -71h-25v71h-28v115h100z" />
    <glyph glyph-name="period" unicode="." horiz-adv-x="179" 
d="M165 154v-154h-153v154h153zM28 138v-122h121v122h-121zM138 127v-100h-99v100h99z" />
    <glyph glyph-name="zero" unicode="0" horiz-adv-x="488" 
d="M271 211v269h-51v-269h51zM471 90l-85 -90h-281l-85 90v511l85 90h281l85 -90v-511zM450 591l-73 78h-263l-73 -78v-491l73 -78h263l73 78v491zM199 189v313h93v-313h-93zM436 106l-65 -69h-251l-64 69v479l64 69h251l65 -69v-479zM306 174v343h-121v-343h121z" />
    <glyph glyph-name="one" unicode="1" horiz-adv-x="341" 
d="M325 212v-212h-308v212h61v268h-61v212h248v-480h60zM245 190v480h-208v-168h60v-312h-60v-168h269v168h-61zM292 175v-138h-242v138h61v342h-61v138h182v-480h60z" />
    <glyph glyph-name="two" unicode="2" horiz-adv-x="490" 
d="M219 452h56v28h-56v-28zM275 212v28h-56v-28h56zM475 0h-457v362l46 49h-46v191l85 89h286l86 -89v-272l-48 -50h48v-280zM454 258h-158v-68h-98v72h182l74 78v252l-74 77h-268l-73 -77v-159h159v69h98v-72h-184l-73 -78v-330h415v236zM439 37h-386v309l65 69h192v102
h-127v-69h-130v138l65 68h256l65 -68v-240l-65 -69h-191v-102h127v68h129v-206z" />
    <glyph glyph-name="three" unicode="3" horiz-adv-x="480" 
d="M217 240v-28h48v28h-48zM217 452h48v28h-48v-28zM381 692l84 -90v-238l-17 -18l17 -18v-238l-84 -90h-279l-85 90v191h118v130h-118v191l85 90h279zM111 670l-73 -78v-159h158v69h90v-72h-130v-168h130v-72h-90v69h-158v-159l73 -78h260l73 78v218l-26 28l26 28v218
l-73 78h-260zM365 655l64 -69v-206l-32 -34l32 -34v-206l-64 -69h-248l-65 69v137h130v-68h119v102h-131v138h131v102h-119v-68h-130v137l65 69h248z" />
    <glyph glyph-name="four" unicode="4" horiz-adv-x="459" 
d="M446 0h-264v171h-164v201l205 319h190v-308h33v-383zM392 190v3h33v168h-33v308h-157l-197 -304v-172h198v-3h-33v-168h222v168h-33zM222 361l14 23v-23h-14zM410 175v-138h-193v138h33v34h-197v150l189 295h136v-308h32v-137h-32v-34h32zM250 346v91l-53 -91h53z" />
    <glyph glyph-name="five" unicode="5" horiz-adv-x="487" 
d="M220 240v-28h52v28h-52zM220 452h52v28h-52v-28zM471 90l-84 -90h-282l-86 90v602h452v-281h-46l46 -49v-272zM450 352l-72 78h-179v72h94v-69h157v237h-410v-408h253v-72h-94v69h-159v-159l74 -78h264l72 78v252zM436 106l-64 -69h-252l-65 69v137h130v-68h122v102h-252
v378h381v-206h-129v68h-122v-102h187l64 -69v-240z" />
    <glyph glyph-name="six" unicode="6" horiz-adv-x="497" 
d="M220 240v-28h55v28h-55zM220 452h55v28h-55v-28zM476 90l-86 -90h-286l-85 90v512l85 90h286l86 -90v-191h-47l47 -49v-272zM454 352l-73 78h-182v72h97v-69h158v159l-73 78h-268l-73 -78v-492l73 -78h268l73 78v252zM296 262v-72h-97v72h97zM184 277v-102h126v102h-126z
M440 106l-65 -69h-256l-65 69v480l65 69h256l65 -69v-137h-130v68h-126v-102h191l65 -69v-240z" />
    <glyph glyph-name="seven" unicode="7" horiz-adv-x="464" 
d="M215 463l5 17h-5v-17zM445 691v-174q0 -5 -4 -19t-11 -34.5t-15 -46t-17 -52.5q-21 -63 -34 -102.5t-15 -50.5h17v-212h-272v212h44q17 56 31 101.5l30 97.5h-182v280h428zM38 669v-236h156v69h54q-25 -83 -47.5 -156.5t-46.5 -155.5h-39v-168h230v168h-25q1 5 6.5 22
t13 41.5t17.5 55t21 63.5q9 28 17.5 54t14.5 45.5t10 32t4 13.5v152h-386zM410 654v-137q0 -1 -7.5 -25t-19.5 -59.5t-25.5 -78.5t-26 -80.5t-21 -65t-10.5 -33.5h31v-138h-201v138h34l103 342h-87v-69h-128v206h358z" />
    <glyph glyph-name="eight" unicode="8" horiz-adv-x="484" 
d="M262 212v28h-45v-28h45zM262 452v28h-45v-28h45zM461 90l-85 -90h-274l-85 90v236l17 19l-17 19v238l85 89h274l85 -89v-238l-18 -19l18 -20v-235zM440 317l-26 29l26 28v218l-73 77h-256l-73 -77v-218l26 -29l-26 -28v-217l73 -78h256l73 78v217zM196 430v72h87v-72h-87
zM196 190v72h87v-72h-87zM425 106l-64 -69h-244l-65 69v205l32 35l-32 34v206l65 68h244l64 -68v-206l-31 -34l31 -35v-205zM297 175v102h-115v-102h115zM297 415v102h-115v-102h115z" />
    <glyph glyph-name="nine" unicode="9" horiz-adv-x="494" 
d="M220 240v-28h55v28h-55zM275 452v28h-55v-28h55zM19 602l85 90h286l86 -90v-512l-86 -90h-286l-85 90v191h46l-46 49v272zM40 340l73 -78h183v-72h-97v69h-159v-159l73 -78h268l73 78v492l-73 78h-268l-73 -78v-252zM199 430v72h97v-72h-97zM310 415v102h-126v-102h126z
M54 586l65 69h256l65 -69v-480l-65 -69h-256l-65 69v137h130v-68h126v102h-191l-65 69v240z" />
    <glyph glyph-name="question" unicode="?" horiz-adv-x="484" 
d="M214 447l5 5h50v28h-55v-33zM470 330l-86 -90h-50v-240h-201v362l47 49h-166v191l85 90h285l86 -90v-272zM448 592l-73 78h-267l-73 -78v-159h158v69h97v-72h-62l-73 -78v-158h157v68h63l73 78v252zM155 190v-168h157v168h-157zM434 346l-65 -69h-71v-68h-129v137l65 69
h71v102h-127v-68h-129v137l65 69h255l65 -69v-240zM298 175v-138h-129v138h129z" />
    <glyph glyph-name="A" unicode="A" horiz-adv-x="563" 
d="M551 211v-211h-537v211h40l55 269h-29v211h405v-211h-29l55 -269h40zM494 189q-17 81 -32.5 156.5t-32.5 156.5h34v167h-362v-167h35l-65 -313h-35v-167h228v167h-29v4h95q0 -1 0.5 -1.5t0.5 -2.5h-30v-167h228v167h-35zM282 421l12 -60h-24zM252 346h61l-31 148z
M515 174v-137h-199v137h33l-7 35h-119l-7 -35h33v-137h-199v137h33l71 343h-38v137h332v-137h-37l71 -343h33z" />
    <glyph glyph-name="B" unicode="B" horiz-adv-x="511" 
d="M291 212v28h-38v-28h38zM291 451v29h-38v-29h38zM493 90l-86 -90h-388v212h32v268h-32v211h388l86 -90v-236l-18 -19l18 -19v-237zM471 317l-27 28l27 29v217l-73 78h-358v-167h32v-312h-32v-168h358l73 78v217zM232 429v73h80v-73h-80zM232 190v72h80v-72h-80zM457 106
l-65 -69h-338v138h33v342h-33v137h338l65 -69v-205l-33 -34l33 -35v-205zM326 175v102h-109v-102h109zM326 414v103h-109v-103h109z" />
    <glyph glyph-name="C" unicode="C" horiz-adv-x="508" 
d="M490 90l-85 -90h-299l-86 90v511l86 90h299l85 -90v-190h-202v69h-66v-269h66v69h202v-190zM469 258h-159v-69h-109v313h109v-69h159v158l-74 78h-280l-73 -78v-491l73 -78h280l74 78v158zM455 106l-66 -69h-268l-65 69v479l65 69h268l66 -69v-137h-131v69h-137v-343h137
v69h131v-137z" />
    <glyph glyph-name="D" unicode="D" horiz-adv-x="523" 
d="M304 211v269h-47v-269h47zM507 90l-86 -90h-400v211h33v269h-33v211h400l86 -90v-511zM486 591l-74 78h-369v-167h32v-313h-32v-167h369l74 78v491zM235 189v313h91v-313h-91zM472 106l-66 -69h-349v137h33v343h-33v137h349l66 -69v-479zM340 174v343h-119v-343h119z" />
    <glyph glyph-name="E" unicode="E" horiz-adv-x="506" 
d="M285 212v28h-31v-28h31zM254 452h31v28h-31v-28zM486 0h-466v212h33v268h-33v212h466v-281h-106v-130h106v-281zM465 259h-159v-69h-73v72h126v168h-126v72h73v-69h159v237h-423v-168h33v-312h-33v-168h423v237zM451 37h-395v138h33v342h-33v138h395v-206h-131v68h-101
v-102h126v-138h-126v-102h101v68h131v-206z" />
    <glyph glyph-name="F" unicode="F" horiz-adv-x="483" 
d="M253 452h14v28h-14v-28zM466 411h-85v-171h-128v-28h32v-212h-266v212h33v268h-33v212h447v-281zM445 670h-405v-168h33v-312h-33v-168h223v168h-32v72h129v168h-129v72h57v-69h157v237zM431 449h-129v68h-85v-102h129v-138h-129v-102h32v-138h-194v138h33v342h-33v138
h376v-206z" />
    <glyph glyph-name="G" unicode="G" 
d="M221 417h62v63h-62v-63zM484 90l-85 -90h-294l-86 90v512l86 90h294l85 -90v-512zM463 395h-256v-167h97v-38h-104v312h104v-69h159v159l-73 78h-276l-73 -78v-492l73 -78h276l73 78v295zM449 106l-65 -69h-264l-65 69v480l65 69h264l65 -69v-137h-131v68h-133v-342h133
v68h-97v137h228v-274z" />
    <glyph glyph-name="H" unicode="H" horiz-adv-x="572" 
d="M261 480v-28h51v28h-51zM261 212h51v28h-51v-28zM517 480v-268h33v-212h-527v212h33v268h-33v212h527v-212h-33zM495 190v312h34v168h-229v-168h34v-72h-94v72h33v168h-228v-168h33v-312h-33v-168h228v168h-33v72h94v-72h-34v-168h229v168h-34zM514 175v-138h-199v138h33
v102h-123v-102h33v-138h-198v138h32v342h-32v138h198v-138h-33v-102h123v102h-33v138h199v-138h-34v-342h34z" />
    <glyph glyph-name="I" unicode="I" horiz-adv-x="274" 
d="M223 480v-268h28v-212h-230v212h27v268h-27v212h230v-212h-28zM204 190v312h28v168h-193v-168h28v-312h-28v-168h193v168h-28zM220 175v-138h-169v138h28v342h-28v138h169v-138h-28v-342h28z" />
    <glyph glyph-name="J" unicode="J" horiz-adv-x="467" 
d="M451 692v-212h-33v-390l-84 -90h-229l-85 90v191h198v-69h2v268h-33v212h264zM208 670v-168h33v-312h-43v69h-157v-159l73 -78h211l73 78v402h32v168h-222zM416 655v-138h-33v-411l-64 -69h-199l-65 69v137h128v-68h72v342h-32v138h193z" />
    <glyph glyph-name="K" unicode="K" horiz-adv-x="552" 
d="M480 480q-15 -19 -28 -34.5l-26 -31t-26 -32t-29 -36.5l109 -134h49v-212h-507v212h34v268h-34v212h507v-212h-49zM508 502v168h-227v-168h11l-39 -47q-6 -9 -15 -18v65h33v168h-227v-168h33v-312h-33v-168h227v168h-33v69l15 -22q9 -12 19 -24t20 -23h-11v-168h227v168
h-38q-29 38 -63 78.5t-63 77.5q33 42 63 78.5t63 77.5h38zM463 517l-138 -171l138 -171h30v-138h-198v138h28q-21 26 -41.5 51t-42.5 51h-16v-102h34v-138h-199v138h34v342h-34v138h199v-138h-34v-102h16q22 26 42.5 51t41.5 51h-28v138h198v-138h-30z" />
    <glyph glyph-name="L" unicode="L" horiz-adv-x="478" 
d="M458 280v-280h-436v211h32v269h-32v211h263v-211h-32v-269h5v69h200zM279 258v-69h-47v313h32v167h-221v-167h32v-313h-32v-167h394v236h-158zM423 243v-206h-366v137h32v343h-32v137h193v-137h-32v-343h75v69h130z" />
    <glyph glyph-name="M" unicode="M" horiz-adv-x="642" 
d="M264 212h3l-3 6v-6zM375 212h5v9zM589 480v-268h33v-212h-276v155l-25 -50l-24 47v-152h-275v212h33v268h-33v212h217l82 -150l84 150h217v-212h-33zM567 190v312h33v168h-182l-97 -174l-95 174h-182v-168h33v-312h-33v-168h231v168h-33v121l79 -158l81 159v-122h-34
v-168h232v168h-33zM585 175v-138h-202v138h34v200l-96 -189l-94 189v-200h34v-138h-202v138h33v342h-33v138h159l103 -190l106 190h158v-138h-33v-342h33z" />
    <glyph glyph-name="N" unicode="N" horiz-adv-x="559" 
d="M542 692v-212h-34v-480h-195l-21 53v-53h-271v212h33v268h-33v212h223l26 -67v67h272zM292 670v-157l-63 157h-187v-168h34v-312h-34v-168h228v146l57 -146h160v480h33v168h-228zM326 502v-73l-30 73h30zM237 253l25 -63h-25v63zM505 655v-138h-33v-480h-134l-116 295
v-157h34v-138h-199v138h33v342h-33v138h163l120 -304v166h-33v138h198z" />
    <glyph glyph-name="O" unicode="O" horiz-adv-x="488" 
d="M271 211v269h-51v-269h51zM471 90l-85 -90h-281l-85 90v511l85 90h281l85 -90v-511zM450 591l-73 78h-263l-73 -78v-491l73 -78h263l73 78v491zM199 189v313h93v-313h-93zM436 106l-65 -69h-251l-64 69v479l64 69h251l65 -69v-479zM306 174v343h-121v-343h121z" />
    <glyph glyph-name="P" unicode="P" 
d="M279 452v28h-27v-28h27zM481 602v-272l-86 -90h-143v-28h32v-212h-265v212h32v268h-32v211h376zM386 669h-346v-167h32v-312h-32v-168h223v168h-32v72h155l73 78v252zM231 430v72h69v-72h-69zM445 586v-240l-65 -69h-163v-102h32v-138h-195v138h32v342h-32v137h326z
M315 415v102h-98v-102h98z" />
    <glyph glyph-name="Q" unicode="Q" horiz-adv-x="492" 
d="M220 248h49v234h-49v-234zM469 91l-65 -69v-56h-203v34h-97l-84 91v514l84 91h280l85 -91v-514zM448 595l-73 79h-261l-73 -79v-495l73 -78h108v-34h161v43l65 69v495zM222 225v-34h-23v314h91v-280h-68zM434 107l-65 -69v-34h-132v34h-117l-64 69v482l64 69h249l65 -69
v-482zM304 210v310h-120v-344h53v34h67z" />
    <glyph glyph-name="R" unicode="R" horiz-adv-x="504" 
d="M285 451v29h-31v-29h31zM254 211h31v29h-31v-29zM488 211h24v-211h-494v211h33v269h-33v211h384l86 -90v-237l-18 -19l18 -20v-114zM467 189v128l-27 29l27 28v217l-75 78h-353v-167h34v-313h-34v-167h227v167h-34v73h74v-73h-27v-167h212v167h-24zM232 429v73h74v-73
h-74zM476 174v-137h-182v137h27v103h-103v-103h33v-137h-197v137h33v343h-33v137h332l66 -69v-205l-32 -34l32 -35v-137h24zM321 414v103h-103v-103h103z" />
    <glyph glyph-name="S" unicode="S" horiz-adv-x="489" 
d="M219 240v-28h51v28h-51zM219 452h51v28h-51v-28zM471 90l-86 -90h-281l-85 90v191h46l-46 49v272l85 90h281l86 -90v-191h-47l47 -49v-272zM449 352l-73 78h-178v72h93v-69h158v159l-73 78h-263l-73 -78v-252l73 -78h178v-72h-93v69h-158v-159l73 -78h263l73 78v252z
M435 106l-65 -69h-251l-65 69v137h130v-68h121v102h-186l-65 69v240l65 69h251l65 -69v-137h-130v68h-121v-102h186l65 -69v-240z" />
    <glyph glyph-name="T" unicode="T" horiz-adv-x="489" 
d="M476 692v-281h-131v-199h33v-212h-266v212h33v199h-131v281h462zM35 670v-237h127v69h4v-312h-33v-168h224v168h-33v312h4v-69h126v237h-419zM440 655v-206h-97v68h-33v-342h33v-138h-196v138h33v342h-33v-68h-98v206h391z" />
    <glyph glyph-name="U" unicode="U" horiz-adv-x="559" 
d="M259 480v-268h41v268h-41zM537 692v-212h-32v-390l-87 -90h-277l-87 90v390h-33v212h516zM289 670v-168h33v-312h-85v312h33v168h-227v-168h33v-402l74 -78h258l75 78v402h33v168h-227zM501 655v-138h-32v-411l-67 -69h-245l-67 69v411h-32v138h197v-138h-32v-342h113
v342h-32v138h197z" />
    <glyph glyph-name="V" unicode="V" horiz-adv-x="570" 
d="M265 480l21 -105l22 105h-43zM17 691h537v-211h-39l-100 -480h-258l-100 480h-40v211zM238 502h29v167h-228v-167h35l100 -480h224l99 480h36v167h-229v-167h30l-48 -229zM286 197l66 320h-33v137h199v-137h-33l-99 -480h-200l-100 480h-32v137h199v-137h-33z" />
    <glyph glyph-name="W" unicode="W" horiz-adv-x="654" 
d="M374 479l20 -31v31h-20zM261 479v-41l27 41h-27zM637 690v-211h-35v-480h-193l-79 131q-22 -32 -44.5 -67t-42.5 -64h-191v480h-34v211h277v-201l39 58l25 -42v185h278zM381 668v-167h35v-131l-83 136l-94 -142v137h34v167h-233v-167h34v-480h158l99 151l91 -151h158v480
h35v167h-234zM600 653v-137h-35v-479h-134l-99 163l-108 -163h-135v479h-34v137h203v-137h-34v-201l108 163l99 -163v201h-35v137h204z" />
    <glyph glyph-name="X" unicode="X" horiz-adv-x="532" 
d="M65 480h-48v212h496v-212h-43l-83 -137q21 -35 39.5 -64.5t41.5 -66.5h45v-212h-496v212h45q11 18 21.5 33.5t20.5 30.5t20.5 31t22.5 35zM174 343q-26 -40 -50.5 -76.5t-50.5 -76.5h-35v-168h224v168h-13l16 26q5 -11 8.5 -16t6.5 -10h-12v-168h224v168h-36
q-25 40 -48 77t-48 76q25 42 49 80t49 79h34v168h-223v-168h15q-6 -11 -9.5 -18.5t-7.5 -14.5l-20 33h14v168h-223v-168h40zM86 517h-33v138h193v-138h-24l46 -80l40 80h-25v138h194v-138h-26l-107 -174l104 -168h29v-138h-195v138h24l-40 70l-42 -70h23v-138h-194v138h28
l110 167z" />
    <glyph glyph-name="Y" unicode="Y" horiz-adv-x="532" 
d="M516 691v-212h-46q-26 -57 -51.5 -110.5t-51.5 -110.5v-47h32v-211h-269v211h34v46q-1 1 -2 3t-2.5 4.5t-3.5 7.5q-11 22 -26 55.5t-29 65.5t-25 56.5t-14 29.5h-47v212h501zM268 669v-168h26l-29 -70q-5 13 -8.5 21.5t-6.5 16t-5.5 15t-6.5 17.5h25v168h-226v-168h38
q3 -5 15 -31.5t27.5 -60.5t31.5 -69.5t27 -57.5q5 -13 7 -15q1 -3 2 -5q0 -20 -0.5 -37t-0.5 -36h-32v-167h226v167h-33v75l111 237h39v168h-227zM480 654v-138h-33l-116 -250v-92h32v-137h-197v137h33v92l-8.5 17.5t-20.5 44t-26 57.5t-27 59t-22 48t-11 24h-33v138h197
v-138h-32l49 -125l51 125h-33v138h197z" />
    <glyph glyph-name="Z" unicode="Z" horiz-adv-x="500" 
d="M283 212v4l-3 -4h3zM221 467l9 13h-9v-13zM180 411h-161v281h465v-187l-156 -224h156v-281h-465v187zM41 180v-158h422v237h-159v-69h-65l224 322v158h-422v-237h159v69h72zM301 517h-116v-68h-130v206h394v-138l-239 -342h108v68h131v-206h-394v138z" />
    <glyph glyph-name="a" unicode="a" horiz-adv-x="563" 
d="M551 211v-211h-537v211h40l55 269h-29v211h405v-211h-29l55 -269h40zM494 189q-17 81 -32.5 156.5t-32.5 156.5h34v167h-362v-167h35l-65 -313h-35v-167h228v167h-29v4h95q0 -1 0.5 -1.5t0.5 -2.5h-30v-167h228v167h-35zM282 421l12 -60h-24zM252 346h61l-31 148z
M515 174v-137h-199v137h33l-7 35h-119l-7 -35h33v-137h-199v137h33l71 343h-38v137h332v-137h-37l71 -343h33z" />
    <glyph glyph-name="b" unicode="b" horiz-adv-x="511" 
d="M291 212v28h-38v-28h38zM291 451v29h-38v-29h38zM493 90l-86 -90h-388v212h32v268h-32v211h388l86 -90v-236l-18 -19l18 -19v-237zM471 317l-27 28l27 29v217l-73 78h-358v-167h32v-312h-32v-168h358l73 78v217zM232 429v73h80v-73h-80zM232 190v72h80v-72h-80zM457 106
l-65 -69h-338v138h33v342h-33v137h338l65 -69v-205l-33 -34l33 -35v-205zM326 175v102h-109v-102h109zM326 414v103h-109v-103h109z" />
    <glyph glyph-name="c" unicode="c" horiz-adv-x="508" 
d="M490 90l-85 -90h-299l-86 90v511l86 90h299l85 -90v-190h-202v69h-66v-269h66v69h202v-190zM469 258h-159v-69h-109v313h109v-69h159v158l-74 78h-280l-73 -78v-491l73 -78h280l74 78v158zM455 106l-66 -69h-268l-65 69v479l65 69h268l66 -69v-137h-131v69h-137v-343h137
v69h131v-137z" />
    <glyph glyph-name="d" unicode="d" horiz-adv-x="523" 
d="M304 211v269h-47v-269h47zM507 90l-86 -90h-400v211h33v269h-33v211h400l86 -90v-511zM486 591l-74 78h-369v-167h32v-313h-32v-167h369l74 78v491zM235 189v313h91v-313h-91zM472 106l-66 -69h-349v137h33v343h-33v137h349l66 -69v-479zM340 174v343h-119v-343h119z" />
    <glyph glyph-name="e" unicode="e" horiz-adv-x="506" 
d="M285 212v28h-31v-28h31zM254 452h31v28h-31v-28zM486 0h-466v212h33v268h-33v212h466v-281h-106v-130h106v-281zM465 259h-159v-69h-73v72h126v168h-126v72h73v-69h159v237h-423v-168h33v-312h-33v-168h423v237zM451 37h-395v138h33v342h-33v138h395v-206h-131v68h-101
v-102h126v-138h-126v-102h101v68h131v-206z" />
    <glyph glyph-name="f" unicode="f" horiz-adv-x="483" 
d="M253 452h14v28h-14v-28zM466 411h-85v-171h-128v-28h32v-212h-266v212h33v268h-33v212h447v-281zM445 670h-405v-168h33v-312h-33v-168h223v168h-32v72h129v168h-129v72h57v-69h157v237zM431 449h-129v68h-85v-102h129v-138h-129v-102h32v-138h-194v138h33v342h-33v138
h376v-206z" />
    <glyph glyph-name="g" unicode="g" 
d="M221 417h62v63h-62v-63zM484 90l-85 -90h-294l-86 90v512l86 90h294l85 -90v-512zM463 395h-256v-167h97v-38h-104v312h104v-69h159v159l-73 78h-276l-73 -78v-492l73 -78h276l73 78v295zM449 106l-65 -69h-264l-65 69v480l65 69h264l65 -69v-137h-131v68h-133v-342h133
v68h-97v137h228v-274z" />
    <glyph glyph-name="h" unicode="h" horiz-adv-x="572" 
d="M261 480v-28h51v28h-51zM261 212h51v28h-51v-28zM517 480v-268h33v-212h-527v212h33v268h-33v212h527v-212h-33zM495 190v312h34v168h-229v-168h34v-72h-94v72h33v168h-228v-168h33v-312h-33v-168h228v168h-33v72h94v-72h-34v-168h229v168h-34zM514 175v-138h-199v138h33
v102h-123v-102h33v-138h-198v138h32v342h-32v138h198v-138h-33v-102h123v102h-33v138h199v-138h-34v-342h34z" />
    <glyph glyph-name="i" unicode="i" horiz-adv-x="274" 
d="M223 480v-268h28v-212h-230v212h27v268h-27v212h230v-212h-28zM204 190v312h28v168h-193v-168h28v-312h-28v-168h193v168h-28zM220 175v-138h-169v138h28v342h-28v138h169v-138h-28v-342h28z" />
    <glyph glyph-name="j" unicode="j" horiz-adv-x="467" 
d="M451 692v-212h-33v-390l-84 -90h-229l-85 90v191h198v-69h2v268h-33v212h264zM208 670v-168h33v-312h-43v69h-157v-159l73 -78h211l73 78v402h32v168h-222zM416 655v-138h-33v-411l-64 -69h-199l-65 69v137h128v-68h72v342h-32v138h193z" />
    <glyph glyph-name="k" unicode="k" horiz-adv-x="552" 
d="M480 480q-15 -19 -28 -34.5l-26 -31t-26 -32t-29 -36.5l109 -134h49v-212h-507v212h34v268h-34v212h507v-212h-49zM508 502v168h-227v-168h11l-39 -47q-6 -9 -15 -18v65h33v168h-227v-168h33v-312h-33v-168h227v168h-33v69l15 -22q9 -12 19 -24t20 -23h-11v-168h227v168
h-38q-29 38 -63 78.5t-63 77.5q33 42 63 78.5t63 77.5h38zM463 517l-138 -171l138 -171h30v-138h-198v138h28q-21 26 -41.5 51t-42.5 51h-16v-102h34v-138h-199v138h34v342h-34v138h199v-138h-34v-102h16q22 26 42.5 51t41.5 51h-28v138h198v-138h-30z" />
    <glyph glyph-name="l" unicode="l" horiz-adv-x="478" 
d="M458 280v-280h-436v211h32v269h-32v211h263v-211h-32v-269h5v69h200zM279 258v-69h-47v313h32v167h-221v-167h32v-313h-32v-167h394v236h-158zM423 243v-206h-366v137h32v343h-32v137h193v-137h-32v-343h75v69h130z" />
    <glyph glyph-name="m" unicode="m" horiz-adv-x="642" 
d="M264 212h3l-3 6v-6zM375 212h5v9zM589 480v-268h33v-212h-276v155l-25 -50l-24 47v-152h-275v212h33v268h-33v212h217l82 -150l84 150h217v-212h-33zM567 190v312h33v168h-182l-97 -174l-95 174h-182v-168h33v-312h-33v-168h231v168h-33v121l79 -158l81 159v-122h-34
v-168h232v168h-33zM585 175v-138h-202v138h34v200l-96 -189l-94 189v-200h34v-138h-202v138h33v342h-33v138h159l103 -190l106 190h158v-138h-33v-342h33z" />
    <glyph glyph-name="n" unicode="n" horiz-adv-x="559" 
d="M542 692v-212h-34v-480h-195l-21 53v-53h-271v212h33v268h-33v212h223l26 -67v67h272zM292 670v-157l-63 157h-187v-168h34v-312h-34v-168h228v146l57 -146h160v480h33v168h-228zM326 502v-73l-30 73h30zM237 253l25 -63h-25v63zM505 655v-138h-33v-480h-134l-116 295
v-157h34v-138h-199v138h33v342h-33v138h163l120 -304v166h-33v138h198z" />
    <glyph glyph-name="o" unicode="o" horiz-adv-x="488" 
d="M271 211v269h-51v-269h51zM471 90l-85 -90h-281l-85 90v511l85 90h281l85 -90v-511zM450 591l-73 78h-263l-73 -78v-491l73 -78h263l73 78v491zM199 189v313h93v-313h-93zM436 106l-65 -69h-251l-64 69v479l64 69h251l65 -69v-479zM306 174v343h-121v-343h121z" />
    <glyph glyph-name="p" unicode="p" 
d="M279 452v28h-27v-28h27zM481 602v-272l-86 -90h-143v-28h32v-212h-265v212h32v268h-32v211h376zM386 669h-346v-167h32v-312h-32v-168h223v168h-32v72h155l73 78v252zM231 430v72h69v-72h-69zM445 586v-240l-65 -69h-163v-102h32v-138h-195v138h32v342h-32v137h326z
M315 415v102h-98v-102h98z" />
    <glyph glyph-name="q" unicode="q" horiz-adv-x="492" 
d="M220 248h49v234h-49v-234zM469 91l-65 -69v-56h-203v34h-97l-84 91v514l84 91h280l85 -91v-514zM448 595l-73 79h-261l-73 -79v-495l73 -78h108v-34h161v43l65 69v495zM222 225v-34h-23v314h91v-280h-68zM434 107l-65 -69v-34h-132v34h-117l-64 69v482l64 69h249l65 -69
v-482zM304 210v310h-120v-344h53v34h67z" />
    <glyph glyph-name="r" unicode="r" horiz-adv-x="504" 
d="M285 451v29h-31v-29h31zM254 211h31v29h-31v-29zM488 211h24v-211h-494v211h33v269h-33v211h384l86 -90v-237l-18 -19l18 -20v-114zM467 189v128l-27 29l27 28v217l-75 78h-353v-167h34v-313h-34v-167h227v167h-34v73h74v-73h-27v-167h212v167h-24zM232 429v73h74v-73
h-74zM476 174v-137h-182v137h27v103h-103v-103h33v-137h-197v137h33v343h-33v137h332l66 -69v-205l-32 -34l32 -35v-137h24zM321 414v103h-103v-103h103z" />
    <glyph glyph-name="s" unicode="s" horiz-adv-x="489" 
d="M219 240v-28h51v28h-51zM219 452h51v28h-51v-28zM471 90l-86 -90h-281l-85 90v191h46l-46 49v272l85 90h281l86 -90v-191h-47l47 -49v-272zM449 352l-73 78h-178v72h93v-69h158v159l-73 78h-263l-73 -78v-252l73 -78h178v-72h-93v69h-158v-159l73 -78h263l73 78v252z
M435 106l-65 -69h-251l-65 69v137h130v-68h121v102h-186l-65 69v240l65 69h251l65 -69v-137h-130v68h-121v-102h186l65 -69v-240z" />
    <glyph glyph-name="t" unicode="t" horiz-adv-x="489" 
d="M476 692v-281h-131v-199h33v-212h-266v212h33v199h-131v281h462zM35 670v-237h127v69h4v-312h-33v-168h224v168h-33v312h4v-69h126v237h-419zM440 655v-206h-97v68h-33v-342h33v-138h-196v138h33v342h-33v-68h-98v206h391z" />
    <glyph glyph-name="u" unicode="u" horiz-adv-x="559" 
d="M259 480v-268h41v268h-41zM537 692v-212h-32v-390l-87 -90h-277l-87 90v390h-33v212h516zM289 670v-168h33v-312h-85v312h33v168h-227v-168h33v-402l74 -78h258l75 78v402h33v168h-227zM501 655v-138h-32v-411l-67 -69h-245l-67 69v411h-32v138h197v-138h-32v-342h113
v342h-32v138h197z" />
    <glyph glyph-name="v" unicode="v" horiz-adv-x="570" 
d="M265 480l21 -105l22 105h-43zM17 691h537v-211h-39l-100 -480h-258l-100 480h-40v211zM238 502h29v167h-228v-167h35l100 -480h224l99 480h36v167h-229v-167h30l-48 -229zM286 197l66 320h-33v137h199v-137h-33l-99 -480h-200l-100 480h-32v137h199v-137h-33z" />
    <glyph glyph-name="w" unicode="w" horiz-adv-x="654" 
d="M374 479l20 -31v31h-20zM261 479v-41l27 41h-27zM637 690v-211h-35v-480h-193l-79 131q-22 -32 -44.5 -67t-42.5 -64h-191v480h-34v211h277v-201l39 58l25 -42v185h278zM381 668v-167h35v-131l-83 136l-94 -142v137h34v167h-233v-167h34v-480h158l99 151l91 -151h158v480
h35v167h-234zM600 653v-137h-35v-479h-134l-99 163l-108 -163h-135v479h-34v137h203v-137h-34v-201l108 163l99 -163v201h-35v137h204z" />
    <glyph glyph-name="x" unicode="x" horiz-adv-x="532" 
d="M65 480h-48v212h496v-212h-43l-83 -137q21 -35 39.5 -64.5t41.5 -66.5h45v-212h-496v212h45q11 18 21.5 33.5t20.5 30.5t20.5 31t22.5 35zM174 343q-26 -40 -50.5 -76.5t-50.5 -76.5h-35v-168h224v168h-13l16 26q5 -11 8.5 -16t6.5 -10h-12v-168h224v168h-36
q-25 40 -48 77t-48 76q25 42 49 80t49 79h34v168h-223v-168h15q-6 -11 -9.5 -18.5t-7.5 -14.5l-20 33h14v168h-223v-168h40zM86 517h-33v138h193v-138h-24l46 -80l40 80h-25v138h194v-138h-26l-107 -174l104 -168h29v-138h-195v138h24l-40 70l-42 -70h23v-138h-194v138h28
l110 167z" />
    <glyph glyph-name="y" unicode="y" horiz-adv-x="532" 
d="M516 691v-212h-46q-26 -57 -51.5 -110.5t-51.5 -110.5v-47h32v-211h-269v211h34v46q-1 1 -2 3t-2.5 4.5t-3.5 7.5q-11 22 -26 55.5t-29 65.5t-25 56.5t-14 29.5h-47v212h501zM268 669v-168h26l-29 -70q-5 13 -8.5 21.5t-6.5 16t-5.5 15t-6.5 17.5h25v168h-226v-168h38
q3 -5 15 -31.5t27.5 -60.5t31.5 -69.5t27 -57.5q5 -13 7 -15q1 -3 2 -5q0 -20 -0.5 -37t-0.5 -36h-32v-167h226v167h-33v75l111 237h39v168h-227zM480 654v-138h-33l-116 -250v-92h32v-137h-197v137h33v92l-8.5 17.5t-20.5 44t-26 57.5t-27 59t-22 48t-11 24h-33v138h197
v-138h-32l49 -125l51 125h-33v138h197z" />
    <glyph glyph-name="z" unicode="z" horiz-adv-x="500" 
d="M283 212v4l-3 -4h3zM221 467l9 13h-9v-13zM180 411h-161v281h465v-187l-156 -224h156v-281h-465v187zM41 180v-158h422v237h-159v-69h-65l224 322v158h-422v-237h159v69h72zM301 517h-116v-68h-130v206h394v-138l-239 -342h108v68h131v-206h-394v138z" />
  </font>
</defs>
</svg>
